<svg width="40" height="40" viewBox="0 0 40 40" xmlns="http://www.w3.org/2000/svg">
  <defs>
    <radialGradient id="bg" cx="11" cy="7" r="32" gradientUnits="userSpaceOnUse">
      <stop stop-color="#22E7FF"/>
      <stop offset="0.42" stop-color="#2563EB"/>
      <stop offset="0.78" stop-color="#6D28D9"/>
      <stop offset="1" stop-color="#050712"/>
    </radialGradient>
    <linearGradient id="l" x1="10" y1="15" x2="20" y2="30" gradientUnits="userSpaceOnUse">
      <stop stop-color="#67E8F9"/>
      <stop offset="1" stop-color="#2563EB"/>
    </linearGradient>
    <linearGradient id="r" x1="20" y1="15" x2="30" y2="30" gradientUnits="userSpaceOnUse">
      <stop stop-color="#A78BFA"/>
      <stop offset="1" stop-color="#4C1D95"/>
    </linearGradient>
  </defs>
  <rect x="3" y="3" width="34" height="34" rx="8.5" fill="url(#bg)"/>
  <rect x="5" y="5" width="30" height="30" rx="7" fill="#070B16" opacity="0.42"/>
  <path d="M8.5 27.4c5.1 2.1 11.4 0.8 15.4-3.8 3.4-3.9 4.2-9.4 2.4-13.9 4.7 2.3 7.8 7.1 7.8 12.6 0 7.6-6.2 13.8-13.8 13.8-4.8 0-9-2.5-11.8-6.3z" fill="#020617" opacity="0.42"/>
  <ellipse cx="20" cy="20.5" rx="13.7" ry="5.8" fill="none" stroke="#7DD3FC" stroke-width="1.35" opacity="0.88" transform="rotate(-19 20 20.5)"/>
  <path d="M20 8.7 29.4 14v11.2L20 30.7l-9.4-5.5V14L20 8.7z" fill="#F8FDFF"/>
  <path d="M20 8.7 29.4 14 20 19.5 10.6 14 20 8.7z" fill="#F8FDFF"/>
  <path d="M10.6 14 20 19.5v11.2l-9.4-5.5V14z" fill="url(#l)"/>
  <path d="M20 19.5 29.4 14v11.2L20 30.7V19.5z" fill="url(#r)"/>
  <path d="M20 8.7v22M10.6 14l18.8 11.2M29.4 14 10.6 25.2" stroke="#E0F7FF" stroke-width="0.9" stroke-linecap="round" opacity="0.46"/>
  <path d="M12.1 10.1 9.4 12l2.7 1.9M27.9 10.1l2.7 1.9-2.7 1.9" fill="none" stroke="#BAE6FD" stroke-width="1.4" stroke-linecap="round" stroke-linejoin="round"/>
  <circle cx="28.3" cy="9.4" r="2.2" fill="#86F7FF"/>
  <circle cx="28.3" cy="9.4" r="0.9" fill="#06111F" opacity="0.7"/>
</svg>
