<svg width="40" height="40" viewBox="0 0 40 40" xmlns="http://www.w3.org/2000/svg">
  <defs>
    <linearGradient id="bg" x1="5" y1="4" x2="35" y2="36" gradientUnits="userSpaceOnUse">
      <stop stop-color="#22D3EE"/>
      <stop offset="0.45" stop-color="#2563EB"/>
      <stop offset="1" stop-color="#A855F7"/>
    </linearGradient>
    <linearGradient id="cube" x1="12" y1="10" x2="30" y2="28" gradientUnits="userSpaceOnUse">
      <stop stop-color="#F8FDFF"/>
      <stop offset="1" stop-color="#7DD3FC"/>
    </linearGradient>
  </defs>
  <rect x="3" y="3" width="34" height="34" rx="9" fill="#020617"/>
  <rect x="4.5" y="4.5" width="31" height="31" rx="8" fill="url(#bg)"/>
  <path d="M9.2 28.2c5.8 1.8 12.2-0.3 15.6-5.2 2.8-4.1 2.8-9.2 0.3-13.2 5.2 2 8.7 6.9 8.7 12.5 0 7.4-6 13.4-13.4 13.4-4.7 0-8.8-2.4-11.2-6.1z" fill="#020617" opacity="0.38"/>
  <path d="M20 8.5 30 14v11.7L20 31.5 10 25.7V14l10-5.5z" fill="url(#cube)"/>
  <path d="M20 8.5 30 14l-10 5.8L10 14l10-5.5z" fill="#FFFFFF"/>
  <path d="M20 19.8 30 14v11.7l-10 5.8V19.8z" fill="#67E8F9"/>
  <path d="M10 14l10 5.8v11.7l-10-5.8V14z" fill="#BAE6FD"/>
  <path d="M20 8.5v23M10 14l20 11.7M30 14 10 25.7" stroke="#172554" stroke-width="1.35" stroke-linecap="round" stroke-linejoin="round" opacity="0.7"/>
  <circle cx="29.5" cy="10.5" r="3" fill="#A78BFA"/>
  <circle cx="29.5" cy="10.5" r="1.35" fill="#020617" opacity="0.65"/>
</svg>
