<svg width="40" height="40" viewBox="0 0 40 40" xmlns="http://www.w3.org/2000/svg">
  <defs>
    <radialGradient id="bg" cx="10" cy="7" r="33" gradientUnits="userSpaceOnUse">
      <stop stop-color="#2AF3FF"/>
      <stop offset="0.4" stop-color="#2563EB"/>
      <stop offset="0.76" stop-color="#7C3AED"/>
      <stop offset="1" stop-color="#020617"/>
    </radialGradient>
    <linearGradient id="l" x1="10" y1="15" x2="20" y2="30" gradientUnits="userSpaceOnUse">
      <stop stop-color="#5EEAD4"/>
      <stop offset="1" stop-color="#1D4ED8"/>
    </linearGradient>
    <linearGradient id="r" x1="20" y1="15" x2="30" y2="30" gradientUnits="userSpaceOnUse">
      <stop stop-color="#C4B5FD"/>
      <stop offset="1" stop-color="#581C87"/>
    </linearGradient>
  </defs>
  <rect x="2.6" y="2.6" width="34.8" height="34.8" rx="9" fill="#020617"/>
  <rect x="4.3" y="4.3" width="31.4" height="31.4" rx="8" fill="url(#bg)"/>
  <path d="M8.6 27.5c5.2 2.1 11.4 0.7 15.4-3.8 3.4-3.9 4.1-9.5 2.3-13.9 4.7 2.3 7.8 7 7.8 12.5 0 7.6-6.2 13.8-13.8 13.8-4.8 0-9.1-2.5-11.7-6.3z" fill="#020617" opacity="0.52"/>
  <ellipse cx="20" cy="20.5" rx="13.7" ry="5.8" fill="none" stroke="#93C5FD" stroke-width="1.45" opacity="0.95" transform="rotate(-19 20 20.5)"/>
  <path d="M20 8.7 29.4 14v11.2L20 30.7l-9.4-5.5V14L20 8.7z" fill="#F8FDFF"/>
  <path d="M20 8.7 29.4 14 20 19.5 10.6 14 20 8.7z" fill="#FFFFFF"/>
  <path d="M10.6 14 20 19.5v11.2l-9.4-5.5V14z" fill="url(#l)"/>
  <path d="M20 19.5 29.4 14v11.2L20 30.7V19.5z" fill="url(#r)"/>
  <path d="M20 8.7v22M10.6 14l18.8 11.2M29.4 14 10.6 25.2" stroke="#E0F7FF" stroke-width="0.95" stroke-linecap="round" opacity="0.55"/>
  <path d="M12.1 10.1 9.4 12l2.7 1.9M27.9 10.1l2.7 1.9-2.7 1.9" fill="none" stroke="#C4B5FD" stroke-width="1.4" stroke-linecap="round" stroke-linejoin="round"/>
  <circle cx="28.3" cy="9.4" r="2.2" fill="#A5F3FC"/>
  <circle cx="28.3" cy="9.4" r="0.9" fill="#020617" opacity="0.75"/>
</svg>
