<svg width="40" height="40" viewBox="0 0 40 40" xmlns="http://www.w3.org/2000/svg">
  <defs>
    <linearGradient id="bg" x1="5" y1="4" x2="35" y2="36" gradientUnits="userSpaceOnUse">
      <stop stop-color="#44D7FF"/>
      <stop offset="0.52" stop-color="#4867FF"/>
      <stop offset="1" stop-color="#7C3AED"/>
    </linearGradient>
    <linearGradient id="cube" x1="12" y1="10" x2="30" y2="28" gradientUnits="userSpaceOnUse">
      <stop stop-color="#FFFFFF"/>
      <stop offset="1" stop-color="#BDEFFF"/>
    </linearGradient>
    <filter id="shadow" x="-20%" y="-20%" width="140%" height="140%">
      <feDropShadow dx="0" dy="2" stdDeviation="2" flood-color="#102040" flood-opacity="0.28"/>
    </filter>
  </defs>
  <rect x="3" y="3" width="34" height="34" rx="9" fill="url(#bg)"/>
  <path d="M9 28c5.7 1.9 12.4-0.1 15.9-5.2 2.9-4.2 2.9-9.4 0.4-13.4 5.2 2 8.7 7 8.7 12.7 0 7.5-6.1 13.6-13.6 13.6-4.8 0-9-2.5-11.4-6.3z" fill="#0F172A" opacity="0.27"/>
  <g filter="url(#shadow)">
    <path d="M20 8.5 30 14v11.7L20 31.5 10 25.7V14l10-5.5z" fill="url(#cube)"/>
    <path d="M20 8.5 30 14l-10 5.8L10 14l10-5.5z" fill="#F8FDFF"/>
    <path d="M20 19.8 30 14v11.7l-10 5.8V19.8z" fill="#9CEBFF"/>
    <path d="M10 14l10 5.8v11.7l-10-5.8V14z" fill="#D7F8FF"/>
    <path d="M20 8.5v23M10 14l20 11.7M30 14 10 25.7" stroke="#1E3A8A" stroke-width="1.35" stroke-linecap="round" stroke-linejoin="round" opacity="0.55"/>
  </g>
  <circle cx="29.5" cy="10.5" r="3" fill="#67E8F9"/>
  <circle cx="29.5" cy="10.5" r="1.35" fill="#0F172A" opacity="0.55"/>
</svg>
