<svg width="256" height="256" viewBox="0 0 256 256" xmlns="http://www.w3.org/2000/svg">
  <defs>
    <linearGradient id="bg" x1="32" y1="24" x2="224" y2="232" gradientUnits="userSpaceOnUse">
      <stop stop-color="#44D7FF"/>
      <stop offset="0.52" stop-color="#4867FF"/>
      <stop offset="1" stop-color="#7C3AED"/>
    </linearGradient>
    <linearGradient id="cube" x1="72" y1="56" x2="184" y2="192" gradientUnits="userSpaceOnUse">
      <stop stop-color="#FFFFFF"/>
      <stop offset="1" stop-color="#BDEFFF"/>
    </linearGradient>
    <filter id="shadow" x="-20%" y="-20%" width="140%" height="140%">
      <feDropShadow dx="0" dy="12" stdDeviation="12" flood-color="#102040" flood-opacity="0.28"/>
    </filter>
  </defs>
  <rect x="16" y="16" width="224" height="224" rx="56" fill="url(#bg)"/>
  <path d="M58 180c36 12 78-1 100-33 18-26 18-59 2-84 33 13 55 44 55 80 0 47-38 85-85 85-30 0-56-16-72-40z" fill="#0F172A" opacity="0.27"/>
  <g filter="url(#shadow)">
    <path d="M128 52 192 88v74l-64 37-64-37V88l64-36z" fill="url(#cube)"/>
    <path d="M128 52 192 88l-64 37-64-37 64-36z" fill="#F8FDFF"/>
    <path d="M128 125 192 88v74l-64 37v-74z" fill="#9CEBFF"/>
    <path d="M64 88l64 37v74l-64-37V88z" fill="#D7F8FF"/>
    <path d="M128 52v147M64 88l128 74M192 88 64 162" stroke="#1E3A8A" stroke-width="8" stroke-linecap="round" stroke-linejoin="round" opacity="0.55"/>
  </g>
  <circle cx="190" cy="66" r="19" fill="#67E8F9"/>
  <circle cx="190" cy="66" r="8.5" fill="#0F172A" opacity="0.55"/>
</svg>
